<?xml version="1.0" encoding="UTF-8" standalone="no"?>
<!DOCTYPE svg PUBLIC "-//W3C//DTD SVG 1.1//EN" "http://www.w3.org/Graphics/SVG/1.1/DTD/svg11.dtd">
<svg width="100%" height="100%" viewBox="0 0 512 512" version="1.1" xmlns="http://www.w3.org/2000/svg" xmlns:xlink="http://www.w3.org/1999/xlink" xml:space="preserve" xmlns:serif="http://www.serif.com/" style="fill-rule:evenodd;clip-rule:evenodd;stroke-linecap:round;stroke-linejoin:round;stroke-miterlimit:1;">
    <path d="M256,0C397.29,0 512,114.71 512,256C512,397.29 397.29,512 256,512C114.71,512 0,397.29 0,256C0,114.71 114.71,0 256,0ZM256,16.667C123.908,16.667 16.667,123.908 16.667,256C16.667,388.092 123.908,495.333 256,495.333C388.092,495.333 495.333,388.092 495.333,256C495.333,123.908 388.092,16.667 256,16.667Z"/>
    <g transform="matrix(1,0,0,1,0,0.262466)">
        <path d="M51.184,256C51.184,256 80.599,155.475 151.709,155.475C222.819,155.475 288.89,356 360,356C431.11,356 460.8,256 460.8,256" style="fill:none;stroke:black;stroke-width:16.67px;"/>
    </g>
</svg>
